<svg width="800" height="110" xmlns="http://www.w3.org/2000/svg" preserveAspectRatio="none">

 <g>
  <title>Layer 1</title>
  <g stroke="null">
   <path stroke="null" fill="#ffe193" d="m0,110l16.72228,-8.7c16.81122,-8.6 50.25578,-26 83.61138,-33.3c33.3556,-7.3 66.62226,-4.7 99.97787,-1c33.3556,3.7 66.80016,8.3 100.15576,9.8c33.3556,1.5 66.62226,-0.1 99.97787,-2.5c33.3556,-2.3 66.80016,-5.3 100.15576,-11.6c33.3556,-6.4 66.62226,-16 99.97787,-15.9c33.3556,0.2 66.80016,10.2 100.15576,15.2c33.3556,5 66.62226,5 83.16664,5l16.63333,0l0,-67l-16.63333,0c-16.54438,0 -49.81104,0 -83.16664,0c-33.3556,0 -66.80016,0 -100.15576,0c-33.3556,0 -66.62226,0 -99.97787,0c-33.3556,0 -66.80016,0 -100.15576,0c-33.3556,0 -66.62226,0 -99.97787,0c-33.3556,0 -66.80016,0 -100.15576,0c-33.3556,0 -66.62226,0 -99.97787,0c-33.3556,0 -66.80016,0 -83.61138,0l-16.72228,0l0,110z"/>
   <path stroke="null" fill="#eacd8c" d="m0,77l16.72228,-2.5c16.81122,-2.5 50.25578,-7.5 83.61138,-10.3c33.3556,-2.9 66.62226,-3.5 99.97787,1.6c33.3556,5.2 66.80016,16.2 100.15576,15.9c33.3556,-0.4 66.62226,-12 99.97787,-14c33.3556,-2 66.80016,5.6 100.15576,4.6c33.3556,-1 66.62226,-10.6 99.97787,-16.3c33.3556,-5.7 66.80016,-7.3 100.15576,-1c33.3556,6.3 66.62226,20.7 83.16664,27.8l16.63333,7.2l0,-90l-16.63333,0c-16.54438,0 -49.81104,0 -83.16664,0c-33.3556,0 -66.80016,0 -100.15576,0c-33.3556,0 -66.62226,0 -99.97787,0c-33.3556,0 -66.80016,0 -100.15576,0c-33.3556,0 -66.62226,0 -99.97787,0c-33.3556,0 -66.80016,0 -100.15576,0c-33.3556,0 -66.62226,0 -99.97787,0c-33.3556,0 -66.80016,0 -83.61138,0l-16.72228,0l0,77z"/>
   <path stroke="null" fill="#d4ba85" d="m0,69l16.72228,-3.5c16.81122,-3.5 50.25578,-10.5 83.61138,-8.2c33.3556,2.4 66.62226,14 99.97787,12.5c33.3556,-1.5 66.80016,-16.1 100.15576,-18.6c33.3556,-2.5 66.62226,7.1 99.97787,4.3c33.3556,-2.8 66.80016,-18.2 100.15576,-19.8c33.3556,-1.7 66.62226,10.3 99.97787,11.6c33.3556,1.4 66.80016,-8 100.15576,-10c33.3556,-2 66.62226,3.4 83.16664,6l16.63333,2.7l0,-46l-16.63333,0c-16.54438,0 -49.81104,0 -83.16664,0c-33.3556,0 -66.80016,0 -100.15576,0c-33.3556,0 -66.62226,0 -99.97787,0c-33.3556,0 -66.80016,0 -100.15576,0c-33.3556,0 -66.62226,0 -99.97787,0c-33.3556,0 -66.80016,0 -100.15576,0c-33.3556,0 -66.62226,0 -99.97787,0c-33.3556,0 -66.80016,0 -83.61138,0l-16.72228,0l0,69z"/>
   <path stroke="null" fill="#bea77d" d="m0,28l16.72228,5.5c16.81122,5.5 50.25578,16.5 83.61138,14.5c33.3556,-2 66.62226,-17 99.97787,-17.7c33.3556,-0.6 66.80016,13 100.15576,20.2c33.3556,7.2 66.62226,7.8 99.97787,8.5c33.3556,0.7 66.80016,1.3 100.15576,-5.5c33.3556,-6.8 66.62226,-21.2 99.97787,-28.8c33.3556,-7.7 66.80016,-8.7 100.15576,-0.5c33.3556,8.1 66.62226,25.5 83.16664,34.1l16.63333,8.7l0,-67l-16.63333,0c-16.54438,0 -49.81104,0 -83.16664,0c-33.3556,0 -66.80016,0 -100.15576,0c-33.3556,0 -66.62226,0 -99.97787,0c-33.3556,0 -66.80016,0 -100.15576,0c-33.3556,0 -66.62226,0 -99.97787,0c-33.3556,0 -66.80016,0 -100.15576,0c-33.3556,0 -66.62226,0 -99.97787,0c-33.3556,0 -66.80016,0 -83.61138,0l-16.72228,0l0,28z"/>
   <path stroke="null" fill="#a79576" d="m0,31l16.72228,-2.2c16.81122,-2.1 50.25578,-6.5 83.61138,-4.1c33.3556,2.3 66.62226,11.3 99.97787,12.6c33.3556,1.4 66.80016,-5 100.15576,-5c33.3556,0 66.62226,6.4 99.97787,8.9c33.3556,2.5 66.80016,1.1 100.15576,-3.9c33.3556,-5 66.62226,-13.6 99.97787,-17.3c33.3556,-3.7 66.80016,-2.3 100.15576,-1.7c33.3556,0.7 66.62226,0.7 83.16664,0.7l16.63333,0l0,-19l-16.63333,0c-16.54438,0 -49.81104,0 -83.16664,0c-33.3556,0 -66.80016,0 -100.15576,0c-33.3556,0 -66.62226,0 -99.97787,0c-33.3556,0 -66.80016,0 -100.15576,0c-33.3556,0 -66.62226,0 -99.97787,0c-33.3556,0 -66.80016,0 -100.15576,0c-33.3556,0 -66.62226,0 -99.97787,0c-33.3556,0 -66.80016,0 -83.61138,0l-16.72228,0l0,31z"/>
   <path stroke="null" fill="#91836e" d="m0,27l16.72228,-3c16.81122,-3 50.25578,-9 83.61138,-13.2c33.3556,-4.1 66.62226,-6.5 99.97787,-5.1c33.3556,1.3 66.80016,6.3 100.15576,9.1c33.3556,2.9 66.62226,3.5 99.97787,4.2c33.3556,0.7 66.80016,1.3 100.15576,3.3c33.3556,2 66.62226,5.4 99.97787,5c33.3556,-0.3 66.80016,-4.3 100.15576,-6.6c33.3556,-2.4 66.62226,-3 83.16664,-3.4l16.63333,-0.3l0,-17l-16.63333,0c-16.54438,0 -49.81104,0 -83.16664,0c-33.3556,0 -66.80016,0 -100.15576,0c-33.3556,0 -66.62226,0 -99.97787,0c-33.3556,0 -66.80016,0 -100.15576,0c-33.3556,0 -66.62226,0 -99.97787,0c-33.3556,0 -66.80016,0 -100.15576,0c-33.3556,0 -66.62226,0 -99.97787,0c-33.3556,0 -66.80016,0 -83.61138,0l-16.72228,0l0,27z"/>
  </g>
 </g>
</svg>